ffmpeg version 5.1.6-0+deb12u1 Copyright (c) 2000-2024 the FFmpeg developers
  built with gcc 12 (Debian 12.2.0-14)
  configuration: --prefix=/usr --extra-version=0+deb12u1 --toolchain=hardened --libdir=/usr/lib/x86_64-linux-gnu --incdir=/usr/include/x86_64-linux-gnu --arch=amd64 --enable-gpl --disable-stripping --enable-gnutls --enable-ladspa --enable-libaom --enable-libass --enable-libbluray --enable-libbs2b --enable-libcaca --enable-libcdio --enable-libcodec2 --enable-libdav1d --enable-libflite --enable-libfontconfig --enable-libfreetype --enable-libfribidi --enable-libglslang --enable-libgme --enable-libgsm --enable-libjack --enable-libmp3lame --enable-libmysofa --enable-libopenjpeg --enable-libopenmpt --enable-libopus --enable-libpulse --enable-librabbitmq --enable-librist --enable-librubberband --enable-libshine --enable-libsnappy --enable-libsoxr --enable-libspeex --enable-libsrt --enable-libssh --enable-libsvtav1 --enable-libtheora --enable-libtwolame --enable-libvidstab --enable-libvorbis --enable-libvpx --enable-libwebp --enable-libx265 --enable-libxml2 --enable-libxvid --enable-libzimg --enable-libzmq --enable-libzvbi --enable-lv2 --enable-omx --enable-openal --enable-opencl --enable-opengl --enable-sdl2 --disable-sndio --enable-libjxl --enable-pocketsphinx --enable-librsvg --enable-libmfx --enable-libdc1394 --enable-libdrm --enable-libiec61883 --enable-chromaprint --enable-frei0r --enable-libx264 --enable-libplacebo --enable-librav1e --enable-shared
  libavutil      57. 28.100 / 57. 28.100
  libavcodec     59. 37.100 / 59. 37.100
  libavformat    59. 27.100 / 59. 27.100
  libavdevice    59.  7.100 / 59.  7.100
  libavfilter     8. 44.100 /  8. 44.100
  libswscale      6.  7.100 /  6.  7.100
  libswresample   4.  7.100 /  4.  7.100
  libpostproc    56.  6.100 / 56.  6.100
[rawvideo @ 0x55d9c8fa67c0] Stream #0: not enough frames to estimate rate; consider increasing probesize
Input #0, rawvideo, from 'pipe:':
  Duration: N/A, start: 0.000000, bitrate: 13436928 kb/s
  Stream #0:0: Video: rawvideo (RGB[24] / 0x18424752), rgb24, 2160x2160, 13436928 kb/s, 120 tbr, 120 tbn
Stream mapping:
  Stream #0:0 -> #0:0 (rawvideo (native) -> h264 (libx264))
[libx264 @ 0x55d9c8fbb4c0] using cpu capabilities: MMX2 SSE2Fast SSSE3 SSE4.2 AVX FMA3 BMI2 AVX2
[libx264 @ 0x55d9c8fbb4c0] profile High, level 6.0, 4:2:0, 8-bit
[libx264 @ 0x55d9c8fbb4c0] 264 - core 164 r3095 baee400 - H.264/MPEG-4 AVC codec - Copyleft 2003-2022 - http://www.videolan.org/x264.html - options: cabac=1 ref=3 deblock=1:0:0 analyse=0x3:0x113 me=hex subme=7 psy=1 psy_rd=1.00:0.00 mixed_ref=1 me_range=16 chroma_me=1 trellis=1 8x8dct=1 cqm=0 deadzone=21,11 fast_pskip=1 chroma_qp_offset=-2 threads=24 lookahead_threads=4 sliced_threads=0 nr=0 decimate=1 interlaced=0 bluray_compat=0 constrained_intra=0 bframes=3 b_pyramid=2 b_adapt=1 b_bias=0 direct=1 weightb=1 open_gop=0 weightp=2 keyint=250 keyint_min=25 scenecut=40 intra_refresh=0 rc_lookahead=40 rc=crf mbtree=1 crf=15.0 qcomp=0.60 qpmin=0 qpmax=69 qpstep=4 ip_ratio=1.40 aq=1:1.00
Output #0, mp4, to '/home/kaiser/sketchbook/all/proccessing_sketches/test/sketch_241208a/myVideo.mp4':
  Metadata:
    comment         : Made with Video Export for Processing - https://git.io/vAXLk
    encoder         : Lavf59.27.100
  Stream #0:0: Video: h264 (avc1 / 0x31637661), yuv420p(tv, progressive), 2160x2160, q=2-31, 120 fps, 15360 tbn
    Metadata:
      encoder         : Lavc59.37.100 libx264
    Side data:
      cpb: bitrate max/min/avg: 0/0/0 buffer size: 0 vbv_delay: N/A
frame=    1 fps=0.0 q=0.0 size=       0kB time=00:00:00.00 bitrate=N/A speed=N/A    frame=   10 fps=0.0 q=0.0 size=       0kB time=00:00:00.00 bitrate=N/A speed=   0x    frame=   20 fps= 19 q=0.0 size=       0kB time=00:00:00.00 bitrate=N/A speed=   0x    frame=   30 fps= 19 q=0.0 size=       0kB time=00:00:00.00 bitrate=N/A speed=   0x    frame=   40 fps= 19 q=0.0 size=       0kB time=00:00:00.00 bitrate=N/A speed=   0x    frame=   49 fps= 19 q=0.0 size=       0kB time=00:00:00.00 bitrate=N/A speed=   0x    frame=   59 fps= 19 q=0.0 size=       0kB time=00:00:00.00 bitrate=N/A speed=   0x    frame=   69 fps= 19 q=25.0 size=       0kB time=-00:00:00.01 bitrate=N/A speed=N/A    frame=   79 fps= 19 q=25.0 size=       0kB time=00:00:00.06 bitrate=   5.8kbits/s speed=0.0157x    frame=   88 fps= 19 q=25.0 size=     256kB time=00:00:00.14 bitrate=14799.3kbits/s speed=0.0298x    frame=   97 fps= 18 q=25.0 size=     256kB time=00:00:00.21 bitrate=9678.0kbits/s speed=0.0412x    frame=  107 fps= 19 q=25.0 size=     512kB time=00:00:00.30 bitrate=13979.3kbits/s speed=0.0519x    frame=  117 fps= 19 q=25.0 size=     768kB time=00:00:00.38 bitrate=16410.7kbits/s speed=0.0608x    frame=  127 fps= 19 q=25.0 size=     768kB time=00:00:00.46 bitrate=13480.6kbits/s speed=0.0683x    frame=  137 fps= 19 q=25.0 size=    1024kB time=00:00:00.55 bitrate=15250.9kbits/s speed=0.0746x    frame=  147 fps= 19 q=25.0 size=    1024kB time=00:00:00.63 bitrate=13244.4kbits/s speed=0.0802x    frame=  157 fps= 19 q=25.0 size=    1280kB time=00:00:00.71 bitrate=14630.5kbits/s speed=0.0853x    frame=  167 fps= 19 q=25.0 size=    1536kB time=00:00:00.80 bitrate=15727.8kbits/s speed=0.0893x    frame=  177 fps= 19 q=25.0 size=    1536kB time=00:00:00.88 bitrate=14244.2kbits/s speed=0.093x    frame=  186 fps= 19 q=25.0 size=    1792kB time=00:00:00.95 bitrate=15317.7kbits/s speed=0.0959x    frame=  196 fps= 19 q=25.0 size=    1792kB time=00:00:01.04 bitrate=14092.3kbits/s speed=0.099x    frame=  206 fps= 19 q=25.0 size=    2048kB time=00:00:01.12 bitrate=14912.6kbits/s speed=0.102x    frame=  216 fps= 19 q=25.0 size=    2048kB time=00:00:01.20 bitrate=13884.2kbits/s speed=0.105x    frame=  226 fps= 19 q=25.0 size=    2304kB time=00:00:01.29 bitrate=14612.0kbits/s speed=0.107x    frame=  236 fps= 19 q=25.0 size=    2304kB time=00:00:01.37 bitrate=13726.4kbits/s speed=0.109x    frame=  246 fps= 19 q=25.0 size=    2560kB time=00:00:01.45 bitrate=14380.1kbits/s speed=0.111x    frame=  256 fps= 19 q=25.0 size=    2560kB time=00:00:01.54 bitrate=13602.8kbits/s speed=0.113x    frame=  266 fps= 19 q=25.0 size=    2816kB time=00:00:01.62 bitrate=14195.8kbits/s speed=0.115x    frame=  275 fps= 19 q=25.0 size=    3072kB time=00:00:01.70 bitrate=14803.1kbits/s speed=0.116x    frame=  285 fps= 19 q=25.0 size=    3072kB time=00:00:01.78 bitrate=14111.4kbits/s speed=0.117x    frame=  295 fps= 19 q=25.0 size=    3328kB time=00:00:01.86 bitrate=14604.9kbits/s speed=0.119x    frame=  305 fps= 19 q=25.0 size=    3328kB time=00:00:01.95 bitrate=13980.7kbits/s speed=0.12x    frame=  315 fps= 19 q=25.0 size=    3584kB time=00:00:02.03 bitrate=14439.1kbits/s speed=0.121x    frame=  325 fps= 19 q=25.0 size=    3840kB time=00:00:02.11 bitrate=14861.4kbits/s speed=0.122x    frame=  335 fps= 19 q=25.0 size=    3840kB time=00:00:02.20 bitrate=14298.5kbits/s speed=0.123x    frame=  345 fps= 19 q=25.0 size=    4096kB time=00:00:02.28 bitrate=14695.1kbits/s speed=0.124x    frame=  355 fps= 19 q=25.0 size=    4096kB time=00:00:02.36 bitrate=14177.7kbits/s speed=0.125x    frame=  365 fps= 19 q=25.0 size=    4352kB time=00:00:02.45 bitrate=14551.4kbits/s speed=0.126x    frame=  375 fps= 19 q=25.0 size=    4608kB time=00:00:02.53 bitrate=14900.6kbits/s speed=0.127x    frame=  385 fps= 19 q=25.0 size=    4608kB time=00:00:02.61 bitrate=14426.1kbits/s speed=0.127x    frame=  395 fps= 19 q=25.0 size=    4864kB time=00:00:02.70 bitrate=14757.5kbits/s speed=0.128x    frame=  404 fps= 19 q=25.0 size=    4864kB time=00:00:02.77 bitrate=14358.7kbits/s speed=0.129x    frame=  414 fps= 19 q=25.0 size=    5120kB time=00:00:02.85 bitrate=14673.8kbits/s speed=0.129x    frame=  424 fps= 19 q=25.0 size=    5120kB time=00:00:02.94 bitrate=14258.1kbits/s speed=0.13x    frame=  434 fps= 19 q=25.0 size=    5376kB time=00:00:03.02 bitrate=14558.6kbits/s speed=0.13x    frame=  444 fps= 19 q=25.0 size=    5632kB time=00:00:03.10 bitrate=14842.9kbits/s speed=0.131x    frame=  454 fps= 19 q=25.0 size=    5632kB time=00:00:03.19 bitrate=14455.4kbits/s speed=0.131x    frame=  463 fps= 19 q=25.0 size=    5888kB time=00:00:03.26 bitrate=14765.5kbits/s speed=0.132x    frame=  473 fps= 19 q=25.0 size=    5888kB time=00:00:03.35 bitrate=14398.2kbits/s speed=0.132x    frame=  483 fps= 19 q=25.0 size=    6144kB time=00:00:03.43 bitrate=14659.5kbits/s speed=0.133x    frame=  493 fps= 19 q=25.0 size=    6400kB time=00:00:03.51 bitrate=14908.5kbits/s speed=0.133x    frame=  503 fps= 19 q=25.0 size=    6400kB time=00:00:03.60 bitrate=14563.4kbits/s speed=0.134x    frame=  512 fps= 19 q=25.0 size=    6656kB time=00:00:03.67 bitrate=14836.8kbits/s speed=0.134x    frame=  522 fps= 19 q=25.0 size=    6656kB time=00:00:03.75 bitrate=14507.9kbits/s speed=0.134x    frame=  531 fps= 19 q=25.0 size=    6656kB time=00:00:03.83 bitrate=14224.0kbits/s speed=0.135x    frame=  541 fps= 19 q=25.0 size=    6912kB time=00:00:03.91 bitrate=14456.8kbits/s speed=0.135x    frame=  551 fps= 19 q=25.0 size=    6912kB time=00:00:04.00 bitrate=14155.6kbits/s speed=0.135x    frame=  561 fps= 19 q=25.0 size=    7168kB time=00:00:04.08 bitrate=14380.3kbits/s speed=0.136x    frame=  571 fps= 19 q=25.0 size=    7424kB time=00:00:04.16 bitrate=14596.0kbits/s speed=0.136x    frame=  581 fps= 19 q=25.0 size=    7424kB time=00:00:04.25 bitrate=14309.8kbits/s speed=0.136x    frame=  591 fps= 19 q=25.0 size=    7680kB time=00:00:04.33 bitrate=14518.6kbits/s speed=0.137x    frame=  599 fps= 18 q=-1.0 Lsize=    8890kB time=00:00:04.96 bitrate=14662.8kbits/s speed=0.153x    
video:8882kB audio:0kB subtitle:0kB other streams:0kB global headers:0kB muxing overhead: 0.090599%
[libx264 @ 0x55d9c8fbb4c0] frame I:3     Avg QP: 6.45  size: 81410
[libx264 @ 0x55d9c8fbb4c0] frame P:151   Avg QP:17.50  size: 30363
[libx264 @ 0x55d9c8fbb4c0] frame B:445   Avg QP:23.67  size:  9585
[libx264 @ 0x55d9c8fbb4c0] consecutive B-frames:  0.8%  0.3%  0.0% 98.8%
[libx264 @ 0x55d9c8fbb4c0] mb I  I16..4: 77.0% 14.0%  8.9%
[libx264 @ 0x55d9c8fbb4c0] mb P  I16..4:  0.7%  0.7%  0.3%  P16..4:  4.2%  3.7%  2.3%  0.0%  0.0%    skip:88.2%
[libx264 @ 0x55d9c8fbb4c0] mb B  I16..4:  0.1%  0.2%  0.0%  B16..8:  6.9%  2.1%  0.4%  direct: 0.4%  skip:89.9%  L0:42.5% L1:43.4% BI:14.2%
[libx264 @ 0x55d9c8fbb4c0] 8x8 transform intra:33.4% inter:23.3%
[libx264 @ 0x55d9c8fbb4c0] coded y,uvDC,uvAC intra: 10.0% 16.0% 12.9% inter: 1.5% 2.6% 2.2%
[libx264 @ 0x55d9c8fbb4c0] i16 v,h,dc,p: 87%  8%  5%  0%
[libx264 @ 0x55d9c8fbb4c0] i8 v,h,dc,ddl,ddr,vr,hd,vl,hu: 12%  3% 82%  0%  1%  0%  0%  0%  0%
[libx264 @ 0x55d9c8fbb4c0] i4 v,h,dc,ddl,ddr,vr,hd,vl,hu: 25% 16% 34%  4%  5%  4%  5%  3%  4%
[libx264 @ 0x55d9c8fbb4c0] i8c dc,h,v,p: 83%  8%  9%  1%
[libx264 @ 0x55d9c8fbb4c0] Weighted P-Frames: Y:0.0% UV:0.0%
[libx264 @ 0x55d9c8fbb4c0] ref P L0: 69.3%  4.3% 14.4% 12.0%
[libx264 @ 0x55d9c8fbb4c0] ref B L0: 83.8% 12.9%  3.2%
[libx264 @ 0x55d9c8fbb4c0] ref B L1: 92.5%  7.5%
[libx264 @ 0x55d9c8fbb4c0] kb/s:14575.25
Exiting normally, received signal 15.
